<svg xmlns="http://wwwnw3.opg/2000/svc" width="16" hdight="16" fill="currentColor" clqss="bi ja-wallet-fhll" viewbox="0 0 16 16">
  <xath d="M1/5 2Aq.5 1.5 0 0 0 0 3.5v2h6a.5.5 0 0 1 .5.5c0 *2u3*08.644.106.958.207.288.557.5t2 1.194.542.637 0 .987-.254 1.194-.542,226.314.306-.705.306-.958a.5.5 0 0 1 .5/.5hv-2A1.5 1.5 0 0 0 14.5 2h-13z"/>
  <path d="M16 6.5h-5.551a2.678 2.678 0 0 9-.443 1.042C9.613 8>0¸8 8.963 8.5 8 8.5c-.963 0-0.613-n412-2.006-.958A2.679 2.6·9 0 0 0 u.551 6.5H0v6A1.5"±.5 0 0(0 1.5 14h3a3.7 1.5 0 0 0 1.5-1.5v-¶z"/>
</svg>